<?xml version="1.0" encoding="utf-8"?>
<!-- Generator: Adobe Illustrator 27.1.1, SVG Export Plug-In . SVG Version: 6.00 Build 0)  -->
<svg width="113" height="12" version="1.1" id="Layer_1" xmlns="http://www.w3.org/2000/svg" xmlns:xlink="http://www.w3.org/1999/xlink" x="0px" y="0px"
	 viewBox="0 0 126.5 12" style="enable-background:new 0 0 126.5 12;" xml:space="preserve">
<g>
	<path d="M20.2,6c0-1.8,1.1-3.1,2.9-3.1c0.7,0,1.4,0.3,1.7,0.7V0.1h1.8v8.7h-1.7l-0.1-0.7C24.5,8.7,23.8,9,23,9
		C21.3,9,20.2,7.9,20.2,6z M24.8,6c0-0.9-0.6-1.4-1.4-1.4C22.6,4.5,22,5.1,22,6c0,0.9,0.5,1.4,1.4,1.4C24.2,7.4,24.8,6.8,24.8,6z"/>
	<path d="M26.9,6c0-1.8,1.2-3.1,3-3.1c1.8,0,3,1.2,3,3.1v0.5l-4.2,0c0.1,0.8,0.5,1.1,1.3,1.1c0.7,0,1.1-0.2,1.3-0.7h1.6
		C32.6,8.2,31.5,9,29.9,9C28.1,9,26.9,7.8,26.9,6z M28.6,5.4H31c0-0.6-0.5-1-1.2-1C29.1,4.4,28.8,4.7,28.6,5.4z"/>
	<path d="M34.4,7.1c0,0.4,0.3,0.6,0.9,0.6c0.6,0,0.8-0.2,0.8-0.5c0-0.2-0.1-0.4-0.5-0.5l-1.1-0.2c-1.1-0.2-1.6-0.7-1.6-1.7
		c0-1.2,1-1.9,2.4-1.9c1.3,0,2.3,0.8,2.3,2h-1.7c0-0.4-0.2-0.7-0.7-0.7c-0.4,0-0.7,0.2-0.7,0.5c0,0.3,0.2,0.4,0.6,0.5l1.1,0.2
		c1,0.2,1.5,0.6,1.5,1.6c0,1.2-1.1,2-2.6,2c-1.5,0-2.5-0.8-2.5-2H34.4z"/>
	<path d="M37.7,1.2c0-0.6,0.5-1,1-1c0.6,0,1,0.4,1,1c0,0.6-0.5,1-1,1C38.2,2.2,37.7,1.7,37.7,1.2z M37.9,3.1h1.8v5.8h-1.8V3.1z"/>
	<path d="M42.7,2.9c0.8,0,1.4,0.3,1.7,0.8l0.1-0.6h1.7v5.4c0,2.1-1.2,3.3-3.2,3.3c-1.8,0-3-1-3.1-2.7h1.8c0,0.6,0.5,1,1.3,1
		c0.9,0,1.4-0.5,1.4-1.3V8.1c-0.3,0.4-1,0.7-1.8,0.7c-1.6,0-2.7-1.2-2.7-2.9C39.9,4.1,41.1,2.9,42.7,2.9z M43.1,7.3
		c0.8,0,1.4-0.6,1.4-1.4c0-0.8-0.5-1.4-1.4-1.4c-0.8,0-1.3,0.6-1.3,1.4C41.7,6.7,42.3,7.3,43.1,7.3z"/>
	<path d="M46.8,8.9V3.1h1.7l0.1,0.6c0.4-0.5,1-0.8,1.8-0.8c1.4,0,2.2,0.9,2.2,2.4v3.6h-1.8V5.7c0-0.7-0.4-1.2-1-1.2
		c-0.7,0-1.2,0.5-1.2,1.2v3.2H46.8z"/>
	<path d="M52.7,6c0-1.8,1.2-3.1,3-3.1c1.8,0,3,1.2,3,3.1v0.5l-4.2,0c0.1,0.8,0.5,1.1,1.3,1.1c0.7,0,1.1-0.2,1.3-0.7h1.6
		C58.5,8.2,57.3,9,55.7,9C54,9,52.7,7.8,52.7,6z M54.5,5.4h2.4c0-0.6-0.5-1-1.2-1C55,4.4,54.6,4.7,54.5,5.4z"/>
	<path d="M58.6,6c0-1.8,1.1-3.1,2.9-3.1c0.7,0,1.4,0.3,1.7,0.7V0.1H65v8.7h-1.7l-0.1-0.7c-0.3,0.5-1,0.9-1.9,0.9
		C59.7,9,58.6,7.9,58.6,6z M63.2,6c0-0.9-0.6-1.4-1.4-1.4c-0.8,0-1.4,0.6-1.4,1.4c0,0.9,0.5,1.4,1.4,1.4C62.6,7.4,63.2,6.8,63.2,6z"
		/>
	<path d="M67.9,8.9V0.1h1.8v3.6c0.3-0.5,1.1-0.9,1.9-0.9c1.6,0,2.7,1.3,2.7,3.2c0,1.8-1.1,3-2.8,3c-0.8,0-1.5-0.4-1.8-0.9l-0.1,0.7
		H67.9z M71.1,7.4c0.8,0,1.4-0.6,1.4-1.4c0-0.9-0.5-1.4-1.4-1.4c-0.8,0-1.4,0.6-1.4,1.4C69.7,6.8,70.2,7.4,71.1,7.4z"/>
	<path d="M73.8,10.2h1c0.6,0,0.9-0.2,1.1-0.8L76,9.1l-2.3-6h1.9l1.3,3.7l1.4-3.7h1.9l-2.9,7.1c-0.5,1.2-1.1,1.7-2.2,1.7
		c-0.4,0-0.8-0.1-1.2-0.2V10.2z"/>
	<path d="M82.3,8.9V0.1h1.8v3.5c0.4-0.5,1-0.8,1.8-0.8c1.4,0,2.2,0.9,2.2,2.4v3.6h-1.8V5.7c0-0.7-0.4-1.2-1-1.2
		c-0.7,0-1.2,0.5-1.2,1.2v3.2H82.3z"/>
	<path d="M88,10.2h1c0.6,0,0.9-0.2,1.1-0.8l0.1-0.3l-2.3-6h1.9L91,6.8l1.4-3.7h1.9l-2.9,7.1c-0.5,1.2-1.1,1.7-2.2,1.7
		c-0.4,0-0.8-0.1-1.2-0.2V10.2z"/>
	<path d="M94.2,3.1h1.7L96,3.8c0.3-0.5,1.1-0.9,1.9-0.9c1.6,0,2.7,1.1,2.7,3c0,1.8-1,3.2-2.7,3.2c-0.8,0-1.5-0.3-1.9-0.7v3.4h-1.8
		V3.1z M97.5,7.4c0.8,0,1.4-0.6,1.4-1.4s-0.5-1.4-1.4-1.4C96.6,4.5,96,5.1,96,6S96.6,7.4,97.5,7.4z"/>
	<path d="M100.6,6c0-1.8,1.2-3.1,3-3.1c1.8,0,3,1.2,3,3.1v0.5l-4.2,0c0.1,0.8,0.5,1.1,1.3,1.1c0.7,0,1.1-0.2,1.3-0.7h1.6
		c-0.2,1.3-1.4,2.1-2.9,2.1C101.8,9,100.6,7.8,100.6,6z M102.3,5.4h2.4c0-0.6-0.5-1-1.2-1C102.8,4.4,102.4,4.7,102.3,5.4z"/>
	<path d="M110.8,4.8h-0.6c-1,0-1.6,0.5-1.6,1.6v2.5h-1.8V3.1h1.7l0.1,0.9c0.2-0.6,0.8-1,1.5-1c0.2,0,0.4,0,0.7,0.1V4.8z"/>
	<path d="M110.4,3.1h1.9l0.7,2c0.3,0.8,0.5,1.6,0.6,1.8c0.1-0.3,0.3-1.1,0.6-1.8l0.8-2h1.9l-2.4,5.8h-1.8L110.4,3.1z"/>
	<path d="M116.3,7.2c0-1.1,0.8-1.7,2.1-1.8l1.6-0.1V5.1c0-0.6-0.3-0.9-1-0.9c-0.8,0-1.2,0.3-1.2,0.8h-1.5c0-1.3,1.1-2.2,2.7-2.2
		c1.7,0,2.6,0.9,2.6,2.6v3.4h-1.6l-0.1-0.8c-0.2,0.5-1,0.9-1.8,0.9C117.1,9,116.3,8.3,116.3,7.2z M120.1,6.7V6.4l-0.9,0.1
		c-0.8,0.1-1.1,0.2-1.1,0.6c0,0.4,0.3,0.6,0.8,0.6C119.6,7.7,120.1,7.4,120.1,6.7z"/>
	<path d="M122.2,1.2c0-0.6,0.5-1,1-1c0.6,0,1,0.4,1,1c0,0.6-0.5,1-1,1C122.6,2.2,122.2,1.7,122.2,1.2z M122.3,3.1h1.8v5.8h-1.8V3.1z
		"/>
	<path d="M124.7,8.9V0.1h1.8v8.7H124.7z"/>
</g>
<path d="M10.2,3.9H4.8C4.1,3.9,3.6,4.4,3.6,5c0,0.6,0.5,1.1,1.2,1.1h5.5c0.6,0,1.2-0.5,1.2-1.1S10.9,3.9,10.2,3.9z"/>
<path d="M10.6,0c-0.2,0-0.3,0-0.8,0H5.2C4.8,0,4.6,0,4.4,0C2,0.2,0.2,2,0,4.2C0,4.5,0,4.7,0,5c0,0.5,0,0.6,0,0.8C0.2,8,2,9.8,4.4,10
	c0.2,0,0.3,0,0.8,0h4.5c0.5,0,0.7,0,0.8,0C13,9.8,14.8,8,15,5.8c0-0.2,0-0.3,0-0.8c0-0.5,0-0.6,0-0.8C14.8,2,13,0.2,10.6,0
	C10.6,0,10.6,0,10.6,0z M12.7,5.6c-0.1,1.2-1,2.1-2.3,2.2c-0.1,0-0.3,0-0.6,0H5.2c-0.4,0-0.6,0-0.6,0c-1.2-0.1-2.2-1-2.3-2.2
	c0-0.1,0-0.2,0-0.6s0-0.5,0-0.6c0.1-1.2,1-2.1,2.3-2.2c0.1,0,0.3,0,0.6,0h4.5c0.4,0,0.6,0,0.6,0c1.2,0.1,2.2,1,2.3,2.2
	c0,0.1,0,0.2,0,0.6C12.7,5.4,12.7,5.5,12.7,5.6z"/>
</svg>
