<svg version="1.2" xmlns="http://www.w3.org/2000/svg" viewBox="0 0 1330 215" width="300" height="48">
	<title>ak black_1</title>
	<defs>
		<radialGradient id="g1" cx="0" cy="0" r="1" gradientUnits="userSpaceOnUse" gradientTransform="matrix(162.22,0,0,162.22,84.608,90.956)">
			<stop offset=".156" stop-color="#56426b"/>
			<stop offset=".793" stop-color="#000000"/>
		</radialGradient>
	</defs>
	<style>
		.s0 { fill: url(#g1) } 
		.s1 { fill: #ffffff } 
		.s2 { fill: #000000 } 
	</style>
	<g>
		<g>
			<g>
				<path fill-rule="evenodd" class="s0" d="m107.1 213.5c-58.8 0-106.4-47.5-106.4-106.3 0-58.8 47.6-106.3 106.4-106.3 58.8 0 106.3 47.5 106.3 106.3 0 58.8-47.5 106.3-106.3 106.3z"/>
				<g>
					<g>
						<path class="s1" d="m122.1 101.4v-38.3h-21.5v11.5q-9-12.5-25.7-12.5-16.8 0-28.4 12.7-11.7 12.7-11.7 32.3 0 19.7 11.7 32.3 11.6 12.6 28 12.6 16.3 0 26.1-13.9v12.8h21.5v-38.9l5.4 7.1v-24.9zm-27.3 21.6q-5.8 5.7-13.4 5.7-7.5 0-13.3-5.6-5.9-5.6-5.9-16 0-10.4 5.9-16 5.8-5.7 13.3-5.7 7.6 0 13.4 5.6 5.8 5.6 5.8 16 0 10.3-5.8 16z"/>
					</g>
					<path class="s1" d="m179.3 62.8h-28.1l-23.7 31.4-5.4 7.2v-38.6h-21.5v88.1h21.5v-38.9l5.4 7.1 24.2 31.8h27.6l-36.3-44.1z"/>
				</g>
				<g>
					<path class="s2" d="m287.1 140.5q-9.6-10.3-9.6-26.4 0-16.2 9.6-26.6 9.5-10.4 23.3-10.4 13.7 0 21.1 10.2v-9.4h22.1v72.1h-22.1v-10.5q-8 11.4-21.4 11.4-13.5 0-23-10.4zm39.6-13.4q4.8-4.6 4.8-13.1 0-8.6-4.8-13.2-4.7-4.5-11-4.5-6.1 0-10.9 4.6-4.8 4.7-4.8 13.2 0 8.5 4.8 13.1 4.7 4.6 10.9 4.6 6.2 0 11-4.7z"/>
					<path class="s2" d="m395 77.9v13.5q7.8-14.3 20.7-14.3v22.5h-5.4q-7.6 0-11.4 3.6-3.9 3.6-3.9 12.7v34.1h-22v-72.1z"/>
					<path class="s2" d="m422.8 99.6q0-9.5 8.1-16 8.2-6.5 22.1-6.5 13.8 0 22.4 6.4 8.5 6.3 9 17.3h-22.6q-0.4-3.8-2.6-5.1-2.2-1.4-6.6-1.4-8.6 0-8.6 5.3 0 4.8 10.6 6.6 10.7 1.8 19.5 5.5 4.5 1.9 7.5 6 3.1 4.2 3.1 10.3 0 10.1-8.7 16.5-8.6 6.4-21.8 6.4-13.2 0-22-6-8.7-6-9.5-17.8h22.6q0.9 6.6 9.3 6.6 3.9 0 6.4-1.8 2.5-1.8 2.5-4.6 0-2.9-4.2-4.6-4.2-1.7-10.1-2.8-6-1.2-12-2.9-6-1.8-10.2-6.1-4.2-4.3-4.2-11.3z"/>
					<path class="s2" d="m521.5 54.4v34.1q6.8-11.4 21.8-11.4 12.4 0 20.1 8.3 7.7 8.3 7.7 22.5v42.1h-22v-39.2q0-6.9-3.7-10.7-3.6-3.8-10.1-3.8-6.5 0-10.1 3.8-3.7 3.8-3.7 10.7v39.2h-22.1v-95.6z"/>
					<path class="s2" d="m611.9 77.9v10.6q6.8-11.4 21.8-11.4 8 0.1 14.3 3.7 6.2 3.6 9.7 10.3 4-6.3 10.4-10.1 6.4-3.8 14.3-3.8 13.2-0.1 20.9 8.1 7.8 8.1 7.8 22.6v42.1h-22v-39.1q0-7-3.7-10.8-3.6-3.8-10.1-3.8-6.5 0-10.2 3.8-3.6 3.8-3.6 10.8v39.1h-22v-39.1q0-7-3.7-10.8-3.7-3.8-10.1-3.8-6.5 0-10.2 3.8-3.6 3.8-3.6 10.8v39.1h-22.1v-72.1h22.1z"/>
					<path class="s2" d="m734 140.5q-9.5-10.3-9.5-26.4 0-16.2 9.5-26.6 9.6-10.4 23.3-10.4 13.8 0 21.1 10.2v-9.4h22.1v72.1h-22.1v-10.5q-8 11.4-21.4 11.4-13.4 0-23-10.4zm39.7-13.4q4.8-4.6 4.8-13.1 0-8.6-4.8-13.2-4.8-4.5-11-4.5-6.2 0-11 4.6-4.8 4.7-4.8 13.2 0 8.5 4.8 13.1 4.8 4.6 11 4.6 6.2 0 11-4.7z"/>
					<path class="s2" d="m842 77.9v10.6q6.8-11.4 21.8-11.4 12.4 0.1 20.1 8.3 7.7 8.3 7.7 22.5v42.1h-22v-39.1q0-7-3.7-10.8-3.6-3.8-10.1-3.8-6.4 0-10.1 3.8-3.7 3.8-3.7 10.8v39.1h-22.1v-72.1z"/>
					<path class="s2" d="m932.4 150h-22.1v-95.6h22.1v53.6l22.3-30.1h29.7l-30.8 36.8 30.8 35.3h-29.3l-22.7-28.8z"/>
					<path class="s2" d="m1016.7 54.4v34.1q6.9-11.4 21.8-11.4 12.4 0 20.1 8.3 7.7 8.3 7.7 22.5v42.1h-21.9v-39.2q0-6.9-3.7-10.7-3.7-3.8-10.2-3.8-6.4 0-10.1 3.8-3.7 3.8-3.7 10.7v39.2h-22.1v-95.6z"/>
					<path class="s2" d="m1089.3 140.5q-9.6-10.3-9.6-26.4 0-16.2 9.6-26.6 9.6-10.4 23.3-10.4 13.8 0 21.1 10.2v-9.4h22.1v72.1h-22.1v-10.5q-8 11.4-21.4 11.4-13.4 0-23-10.4zm39.6-13.4q4.8-4.6 4.8-13.1 0-8.6-4.8-13.2-4.7-4.5-10.9-4.5-6.2 0-11 4.6-4.8 4.7-4.8 13.2 0 8.5 4.8 13.1 4.8 4.6 11 4.6 6.2 0 10.9-4.7z"/>
					<path class="s2" d="m1175.2 150v-95.6h22v95.6z"/>
					<path class="s2" d="m1236.8 69.8q-3.8 3.7-9.2 3.7-5.4 0-9.2-3.7-3.7-3.8-3.7-9.3 0-5.4 3.7-9.2 3.8-3.7 9.2-3.7 5.4 0 9.2 3.7 3.7 3.8 3.7 9.2 0 5.5-3.7 9.3zm-20.2 80.2v-72.1h22.1v72.1z"/>
					<path class="s2" d="m1262.3 140.5q-9.5-10.3-9.5-26.4 0-16.2 9.5-26.6 9.6-10.4 23.3-10.4 13.8 0 21.2 10.2v-32.9h22v95.6h-22v-10.5q-8 11.4-21.5 11.4-13.4 0-23-10.4zm39.7-13.4q4.8-4.6 4.8-13.1 0-8.6-4.8-13.2-4.8-4.5-11-4.5-6.2 0-11 4.6-4.8 4.7-4.7 13.2-0.1 8.5 4.7 13.1 4.8 4.6 11 4.6 6.2 0 11-4.7z"/>
				</g>
			</g>
		</g>
	</g>
</svg>