<svg version="1.2" xmlns="http://www.w3.org/2000/svg" viewBox="0 0 506 710" width="506" height="710">
	<title>ak main logo</title>
	<style>
		.s0 { fill: #000000 } 
		.s1 { fill: #ffffff } 
		.s2 { fill: #d6d6d6 } 
	</style>
	<g id="Layer 1">
		<g id="&lt;Group&gt;">
			<g id="&lt;Group&gt;">
				<path id="&lt;Compound Path&gt;" fill-rule="evenodd" class="s0" d="m47.5 600.4l-3.5-10.7h-22.9l-3.6 10.7h-16.5l22.2-64h18.9l22.1 64zm-22.6-22.5h15.1l-7.5-22.8z"/>
				<path id="&lt;Compound Path&gt;" class="s0" d="m87.3 549.7v9.4q5.5-10 14.6-10v15.9h-3.9q-5.3 0-8 2.5-2.7 2.5-2.7 8.9v24h-15.5v-50.7z"/>
				<path id="&lt;Compound Path&gt;" class="s0" d="m106.8 565q0-6.8 5.8-11.3 5.7-4.6 15.5-4.6 9.7 0 15.7 4.5 6 4.5 6.4 12.2h-15.9q-0.3-2.7-1.8-3.6-1.6-1-4.7-1-6.1 0-6.1 3.8 0 3.3 7.5 4.6 7.5 1.3 13.7 3.9 3.2 1.3 5.3 4.2 2.2 3 2.2 7.2 0 7.1-6.1 11.6-6.1 4.5-15.4 4.5-9.2 0-15.4-4.2-6.2-4.2-6.7-12.5h15.9q0.6 4.6 6.5 4.6 2.7 0 4.5-1.2 1.8-1.3 1.8-3.3 0-2-3-3.2-2.9-1.2-7.1-2-4.2-0.8-8.4-2-4.2-1.3-7.2-4.3-3-3-3-7.9z"/>
				<path id="&lt;Compound Path&gt;" class="s0" d="m176.3 533.2v23.9q4.8-8 15.3-8 8.7 0 14.1 5.9 5.4 5.8 5.4 15.8v29.6h-15.4v-27.5q0-4.9-2.6-7.6-2.6-2.7-7.1-2.7-4.6 0-7.2 2.7-2.5 2.7-2.5 7.6v27.5h-15.6v-67.2z"/>
				<path id="&lt;Compound Path&gt;" class="s0" d="m239.8 549.7v7.4q4.9-8 15.4-8 5.6 0 10 2.6 4.4 2.5 6.9 7.3 2.8-4.5 7.3-7.2 4.5-2.7 10-2.7 9.3 0 14.8 5.8 5.4 5.7 5.4 15.9v29.6h-15.4v-27.5q0-4.9-2.6-7.6-2.6-2.7-7.2-2.7-4.5 0-7.1 2.7-2.6 2.7-2.6 7.6v27.5h-15.4v-27.5q0-4.9-2.6-7.6-2.6-2.7-7.1-2.7-4.6 0-7.2 2.7-2.6 2.7-2.6 7.6v27.5h-15.5v-50.7z"/>
				<path id="&lt;Compound Path&gt;" fill-rule="evenodd" class="s0" d="m325.8 593.8q-6.7-7.3-6.7-18.7 0-11.3 6.7-18.6 6.7-7.4 16.4-7.4 9.7 0 14.8 7.2v-6.6h15.6v50.7h-15.6v-7.4q-5.6 8-15.1 8-9.4 0-16.1-7.2zm27.9-9.5q3.3-3.3 3.3-9.3 0-6-3.3-9.2-3.4-3.2-7.8-3.2-4.3 0-7.7 3.3-3.3 3.2-3.3 9.2 0 6 3.3 9.3 3.4 3.2 7.7 3.2 4.4 0 7.8-3.3z"/>
				<path id="&lt;Compound Path&gt;" class="s0" d="m401.7 549.7v7.4q4.8-8 15.4-8 8.7 0 14.1 5.9 5.4 5.8 5.4 15.8v29.6h-15.4v-27.5q0-4.9-2.6-7.6-2.6-2.7-7.2-2.7-4.5 0-7.1 2.7-2.6 2.7-2.6 7.6v27.5h-15.5v-50.7z"/>
				<path id="&lt;Compound Path&gt;" class="s1" d="m22.5 709.4h-15.5v-63.8h15.5v28l21.1-28h20.4l-26.3 31.9 26.3 31.9h-20l-21.5-28.2z"/>
				<path id="&lt;Compound Path&gt;" class="s1" d="m88 642.2v24q4.8-8 15.3-8 8.7 0 14.1 5.8 5.4 5.8 5.4 15.8v29.6h-15.4v-27.5q0-4.9-2.6-7.6-2.6-2.7-7.1-2.7-4.6 0-7.2 2.7-2.5 2.7-2.5 7.6v27.5h-15.6v-67.2z"/>
				<path id="&lt;Compound Path&gt;" fill-rule="evenodd" class="s1" d="m139 702.8q-6.7-7.3-6.7-18.7 0-11.3 6.7-18.6 6.7-7.3 16.4-7.3 9.7 0 14.9 7.1v-6.6h15.5v50.7h-15.5v-7.4q-5.7 8-15.1 8-9.5 0-16.2-7.2zm27.9-9.5q3.4-3.3 3.4-9.2 0-6-3.4-9.3-3.4-3.2-7.7-3.2-4.4 0-7.7 3.3-3.4 3.2-3.4 9.2 0 6 3.4 9.3 3.3 3.2 7.7 3.2 4.3 0 7.7-3.3z"/>
				<path id="&lt;Compound Path&gt;" class="s1" d="m199.4 709.4v-67.2h15.5v67.2z"/>
				<path id="&lt;Compound Path&gt;" class="s1" d="m242.7 653q-2.6 2.6-6.4 2.6-3.8 0-6.5-2.6-2.6-2.7-2.6-6.5 0-3.9 2.6-6.5 2.7-2.6 6.5-2.6 3.8 0 6.4 2.6 2.7 2.6 2.7 6.5 0 3.8-2.7 6.5zm-14.1 56.4v-50.7h15.5v50.7z"/>
				<path id="&lt;Compound Path&gt;" fill-rule="evenodd" class="s1" d="m260.7 702.8q-6.7-7.3-6.7-18.7 0-11.3 6.7-18.6 6.8-7.3 16.4-7.3 9.7 0 14.9 7.1v-23.1h15.5v67.2h-15.5v-7.4q-5.6 8-15.1 8-9.4 0-16.2-7.2zm27.9-9.5q3.4-3.3 3.4-9.2 0-6-3.4-9.3-3.3-3.2-7.7-3.2-4.4 0-7.7 3.3-3.4 3.2-3.4 9.2 0 6 3.4 9.3 3.3 3.2 7.7 3.2 4.4 0 7.7-3.3z"/>
			</g>
			<g id="&lt;Group&gt;">
				<g id="&lt;Group&gt;">
					<g id="&lt;Group&gt;">
						<path id="&lt;Path&gt;" class="s0" d="m438.2 514.4h-438v-289.4c0-82 66.5-148.6 148.6-148.6h289.4z"/>
					</g>
					<g id="&lt;Group&gt;">
						<path id="&lt;Compound Path&gt;" fill-rule="evenodd" class="s1" d="m102.2 402q-35.9-38.8-35.9-99.5 0-60.6 35.9-99.7 35.9-39.1 87.6-39.1 51.7 0 79.4 38.4v-35.5h83v270.9h-83v-39.4q-30.1 42.8-80.6 42.8-50.5 0-86.4-38.9zm149-50.4q18-17.5 18-49.6 0-32-18-49.2-17.9-17.2-41.2-17.2-23.3 0-41.3 17.4-17.9 17.5-17.9 49.5 0 32.1 17.9 49.3 18 17.2 41.3 17.2 23.3 0 41.2-17.4z"/>
					</g>
				</g>
				<g id="&lt;Group&gt;">
					<g id="&lt;Group&gt;">
						<path id="&lt;Path&gt;" class="s1" d="m504.4 0h-66.2v65.1h66.2z"/>
					</g>
					<g id="&lt;Group&gt;">
						<path id="&lt;Path&gt;" class="s1" d="m504.4 153.8h-66.2v65.1h66.2z"/>
					</g>
					<g id="&lt;Group&gt;">
						<path id="&lt;Path&gt;" class="s1" d="m438.2 76.4h-66.1v65.1h66.1z"/>
					</g>
				</g>
			</g>
		</g>
		<path id="&lt;Path&gt;" class="s2" d="m-813 895h-1920v-1080h1920z"/>
		<g id="&lt;Group&gt;">
			<g id="&lt;Group&gt;">
				<g id="&lt;Group&gt;">
					<g id="&lt;Group&gt;">
						<path id="&lt;Path&gt;" class="s1" d="m-1587.1 510.5h-438v-289.4c0-82.1 66.5-148.6 148.6-148.6h289.4z"/>
					</g>
					<g id="&lt;Group&gt;">
						<path id="&lt;Compound Path&gt;" fill-rule="evenodd" class="s0" d="m-1923.1 398.1q-35.9-38.8-35.9-99.5 0-60.6 35.9-99.7 36-39.1 87.6-39.1 51.7 0 79.4 38.4v-35.5h83v270.8h-83v-39.3q-30.1 42.7-80.6 42.7-50.4 0-86.4-38.8zm149-50.5q18-17.4 18-49.5 0-32-18-49.2-17.9-17.3-41.2-17.3-23.3 0-41.3 17.5-17.9 17.5-17.9 49.5 0 32.1 17.9 49.3 18 17.2 41.3 17.2 23.3 0 41.2-17.5z"/>
					</g>
				</g>
				<g id="&lt;Group&gt;">
					<g id="&lt;Group&gt;">
						<path id="&lt;Path&gt;" class="s0" d="m-1520.9-4h-66.2v65.2h66.2z"/>
					</g>
					<g id="&lt;Group&gt;">
						<path id="&lt;Path&gt;" class="s0" d="m-1520.9 149.8h-66.2v65.2h66.2z"/>
					</g>
					<g id="&lt;Group&gt;">
						<path id="&lt;Path&gt;" class="s0" d="m-1587.1 72.5h-66.1v65.1h66.1z"/>
					</g>
				</g>
			</g>
			<g id="&lt;Group&gt;">
				<path id="&lt;Compound Path&gt;" fill-rule="evenodd" class="s0" d="m-1977.8 604.3l-3.5-10.7h-22.9l-3.5 10.7h-16.6l22.2-64h18.9l22.1 64zm-22.6-22.5h15.1l-7.5-22.7z"/>
				<path id="&lt;Compound Path&gt;" class="s0" d="m-1938 553.6v9.5q5.5-10 14.6-10v15.8h-3.9q-5.3 0-8 2.5-2.7 2.6-2.7 8.9v24h-15.5v-50.7z"/>
				<path id="&lt;Compound Path&gt;" class="s0" d="m-1918.4 568.9q0-6.7 5.7-11.3 5.7-4.5 15.5-4.5 9.7 0 15.7 4.4 6 4.5 6.4 12.2h-15.9q-0.3-2.6-1.8-3.6-1.6-0.9-4.7-0.9-6 0-6 3.7 0 3.3 7.4 4.6 7.5 1.3 13.7 3.9 3.2 1.3 5.3 4.2 2.2 3 2.2 7.3 0 7-6.1 11.5-6.1 4.5-15.4 4.5-9.2 0-15.4-4.2-6.2-4.2-6.7-12.5h15.9q0.6 4.7 6.5 4.7 2.7 0 4.5-1.3 1.8-1.3 1.8-3.3 0-2-3-3.2-2.9-1.1-7.1-2-4.2-0.8-8.4-2-4.2-1.2-7.2-4.3-2.9-3-2.9-7.9z"/>
				<path id="&lt;Compound Path&gt;" class="s0" d="m-1849 537.1v24q4.8-8 15.3-8 8.7 0 14.1 5.8 5.4 5.8 5.4 15.8v29.6h-15.4v-27.5q0-4.9-2.6-7.6-2.6-2.7-7.1-2.7-4.6 0-7.2 2.7-2.5 2.7-2.5 7.6v27.5h-15.6v-67.2z"/>
				<path id="&lt;Compound Path&gt;" class="s0" d="m-1785.5 553.6v7.5q4.9-8 15.4-8 5.6 0 10 2.5 4.4 2.6 6.9 7.3 2.8-4.5 7.3-7.2 4.5-2.6 10.1-2.6 9.2 0 14.7 5.7 5.4 5.7 5.4 15.9v29.6h-15.4v-27.5q0-4.9-2.6-7.6-2.6-2.7-7.1-2.7-4.6 0-7.2 2.7-2.6 2.7-2.6 7.6v27.5h-15.4v-27.5q0-4.9-2.6-7.6-2.6-2.7-7.1-2.7-4.6 0-7.2 2.7-2.6 2.7-2.6 7.6v27.5h-15.5v-50.7z"/>
				<path id="&lt;Compound Path&gt;" fill-rule="evenodd" class="s0" d="m-1699.5 597.7q-6.7-7.3-6.7-18.7 0-11.3 6.7-18.6 6.7-7.3 16.4-7.3 9.7 0 14.8 7.1v-6.6h15.6v50.7h-15.6v-7.4q-5.6 8-15 8-9.5 0-16.2-7.2zm27.9-9.5q3.3-3.2 3.3-9.2 0-6-3.3-9.3-3.4-3.2-7.7-3.2-4.4 0-7.8 3.3-3.3 3.3-3.3 9.2 0 6 3.3 9.3 3.4 3.2 7.8 3.2 4.3 0 7.7-3.3z"/>
				<path id="&lt;Compound Path&gt;" class="s0" d="m-1623.6 553.6v7.5q4.8-8 15.4-8 8.7 0 14.1 5.8 5.4 5.8 5.4 15.8v29.6h-15.4v-27.5q0-4.9-2.6-7.6-2.6-2.7-7.1-2.7-4.6 0-7.2 2.7-2.6 2.7-2.6 7.6v27.5h-15.5v-50.7z"/>
				<path id="&lt;Compound Path&gt;" class="s1" d="m-2002.7 713.3h-15.6v-63.8h15.6v28l21-28h20.4l-26.3 31.9 26.3 31.9h-20l-21.4-28.1z"/>
				<path id="&lt;Compound Path&gt;" class="s1" d="m-1937.3 646.1v24q4.8-8 15.3-8 8.7 0 14.1 5.8 5.4 5.8 5.4 15.8v29.6h-15.4v-27.5q0-4.9-2.6-7.6-2.6-2.7-7.1-2.7-4.6 0-7.2 2.7-2.5 2.7-2.5 7.6v27.5h-15.6v-67.2z"/>
				<path id="&lt;Compound Path&gt;" fill-rule="evenodd" class="s1" d="m-1886.3 706.7q-6.7-7.3-6.7-18.6 0-11.4 6.7-18.7 6.7-7.3 16.4-7.3 9.7 0 14.9 7.2v-6.7h15.5v50.7h-15.5v-7.3q-5.7 8-15.1 8-9.5 0-16.2-7.3zm27.9-9.5q3.4-3.2 3.4-9.2 0-6-3.4-9.3-3.4-3.2-7.7-3.2-4.4 0-7.7 3.3-3.4 3.3-3.4 9.3 0 6 3.4 9.2 3.3 3.2 7.7 3.2 4.3 0 7.7-3.3z"/>
				<path id="&lt;Compound Path&gt;" class="s1" d="m-1825.9 713.3v-67.2h15.6v67.2z"/>
				<path id="&lt;Compound Path&gt;" class="s1" d="m-1782.5 656.9q-2.7 2.6-6.5 2.6-3.8 0-6.4-2.6-2.7-2.6-2.7-6.5 0-3.9 2.7-6.5 2.6-2.6 6.4-2.6 3.8 0 6.5 2.6 2.6 2.6 2.6 6.5 0 3.9-2.6 6.5zm-14.2 56.4v-50.7h15.5v50.7z"/>
				<path id="&lt;Compound Path&gt;" fill-rule="evenodd" class="s1" d="m-1764.6 706.7q-6.7-7.3-6.7-18.6 0-11.4 6.7-18.7 6.8-7.3 16.4-7.3 9.7 0 14.9 7.2v-23.2h15.5v67.2h-15.5v-7.3q-5.6 8-15.1 8-9.4 0-16.2-7.3zm27.9-9.5q3.4-3.2 3.4-9.2 0-6-3.4-9.3-3.3-3.2-7.7-3.2-4.4 0-7.7 3.3-3.4 3.3-3.4 9.3 0 6 3.4 9.2 3.3 3.2 7.7 3.2 4.4 0 7.7-3.3z"/>
			</g>
		</g>
	</g>
</svg>